<svg width="40" height="40" viewBox="0 0 40 40" fill="none" xmlns="http://www.w3.org/2000/svg">
<path d="M36.9227 23.1067C36.1734 22.5573 34.648 21.8747 33.36 21.4373C33.4933 20.5973 33.5413 19.544 33.336 18.3253H33.3307V18.296H33.336V18.3253C34.632 18.0907 35.8587 17.5653 36.9227 16.7867C37.944 16.0293 37.7467 15.176 37.592 14.6693C36.328 10.5707 33.6347 7.06399 30.0053 4.78133C26.376 2.50133 22.0453 1.59733 17.8053 2.23466C13.5653 2.87466 9.69602 5.01333 6.89868 8.26399C4.10135 11.512 2.56268 15.6587 2.56268 19.9467C2.56268 24.2347 4.10135 28.3813 6.89868 31.6293C9.69602 34.88 13.5653 37.0187 17.8053 37.6587C22.0453 38.296 26.376 37.392 30.0053 35.112C33.6347 32.8293 36.328 29.3227 37.592 25.224C37.7467 24.7173 37.944 23.864 36.9227 23.1067ZM35.7707 24.6613C34.6427 28.3173 32.24 31.4453 29.0027 33.48C25.7627 35.5147 21.9013 36.3173 18.12 35.7467C14.336 35.176 10.8853 33.2693 8.38935 30.368C5.89602 27.4693 4.52268 23.7707 4.52268 19.9467C4.52268 16.1227 5.89602 12.424 8.38935 9.52533C10.8853 6.62399 14.336 4.71733 18.12 4.14666C21.9013 3.57599 25.7627 4.37866 29.0027 6.41333C32.24 8.44799 34.6427 11.576 35.7707 15.232C35.7707 15.24 35.776 15.2507 35.7813 15.2587C35.2293 15.6587 33.952 16.1387 32.8107 16.4773L32.8 16.456C32.6373 16.0533 32.448 15.6587 32.2293 15.2827L30.4133 12.136C29.5947 10.72 28.4187 9.54133 27 8.72266C25.5813 7.90399 23.9733 7.47199 22.336 7.47199H18.7013C17.064 7.47199 15.456 7.90399 14.0373 8.72266C12.6213 9.54133 11.4427 10.72 10.624 12.136L8.80802 15.2827C7.98935 16.7013 7.55735 18.3093 7.55735 19.9467C7.55735 21.584 7.98935 23.192 8.80802 24.6107L10.624 27.7573C11.4427 29.1733 12.6213 30.352 14.0373 31.1707C15.456 31.9893 17.064 32.4213 18.7013 32.4213H22.336C23.9733 32.4213 25.5813 31.9893 27 31.1707C28.4187 30.352 29.5947 29.1733 30.4133 27.7573L32.2293 24.616C32.448 24.24 32.6373 23.8453 32.8 23.4427L32.8107 23.4187C32.8107 23.4187 32.8107 23.416 32.8133 23.4133H32.816C33.888 23.5787 34.904 23.9973 35.7813 24.6347C35.7813 24.6427 35.776 24.6533 35.7707 24.6613Z" fill="#006BFF"/>
<path d="M32.8106 16.4799C32.4026 16.5466 31.9893 16.5839 31.5733 16.5839C28.856 16.5839 27.8373 15.6799 26.6586 14.6346C25.52 13.6239 24.104 12.3706 21.5253 12.3706H19.984C18.12 12.3706 16.424 13.0479 15.2133 14.2746C14.0293 15.4746 13.376 17.1173 13.376 18.8986V21.0053C13.376 22.7866 14.0293 24.4293 15.2133 25.6293C16.4266 26.8559 18.12 27.5333 19.984 27.5333H21.5253C24.104 27.5333 25.52 26.2773 26.6586 25.2693C27.8373 24.2293 28.8586 23.3199 31.5733 23.3199C31.9866 23.3199 32.4026 23.3519 32.8106 23.4186C33.0453 22.8319 33.3893 21.3066 33.36 21.4373C32.7413 21.3813 32.16 21.4079 31.568 21.4079C25.3253 21.4079 25.6506 25.6239 21.5173 25.6239H19.976C17.1386 25.6239 15.2746 23.5973 15.2746 21.0026V18.8906C15.2746 16.2986 17.1386 14.2719 19.976 14.2719H21.5173C25.6506 14.2719 25.3253 18.4853 31.568 18.4853C32.16 18.4853 32.7493 18.4319 33.3306 18.3253V18.2959C33.2186 17.6746 33.0453 17.0639 32.8106 16.4773V16.4799Z" fill="#0AE8F0"/>
</svg>
