<svg width="40" height="40" viewBox="0 0 40 40" fill="none" xmlns="http://www.w3.org/2000/svg">
<g clip-path="url(#clip0_206_692)">
<path d="M14.5727 0.903703C8.32939 1.36567 3.02185 1.79053 2.77231 1.84028C2.07264 1.96505 1.43615 2.43966 1.13685 3.06431L0.874672 3.61394L0.899942 16.7134L0.937058 29.8129L1.33664 30.6247C1.56171 31.074 3.08503 33.1722 4.74576 35.332C8.0301 39.5901 8.26701 39.8278 9.51552 39.9526C9.87799 39.9897 12.6001 39.8649 15.5472 39.6904C18.507 39.5032 23.2515 39.2158 26.0991 39.0539C38.2612 38.3155 37.6366 38.3779 38.3354 37.7785C39.2096 37.0544 39.1472 38.2405 39.1844 22.3195C39.2096 8.8204 39.197 7.93436 38.9972 7.52214C38.7603 7.06017 38.3354 6.7356 32.791 2.83925C29.0826 0.241938 28.8204 0.104531 27.1589 0.0792609C26.4726 0.0547803 20.8034 0.429096 14.5727 0.903703ZM28.608 2.61418C29.1323 2.85109 32.9663 5.52342 33.5278 6.03593C33.6778 6.18597 33.7276 6.31075 33.6525 6.38577C33.478 6.53581 9.75164 7.94699 9.06539 7.8467C8.75346 7.79695 8.29149 7.6098 8.02931 7.43448C6.94269 6.6977 4.24588 4.48734 4.24588 4.32545C4.24588 3.9006 4.15822 3.9006 14.7354 3.13933C16.7586 3.00192 20.0801 2.75238 22.1033 2.5897C26.4853 2.23987 27.797 2.2525 28.608 2.61418ZM36.1504 9.44505C36.3249 9.61957 36.4749 9.95677 36.5247 10.2813C36.5618 10.5814 36.5871 16.1756 36.5618 22.6938C36.5247 33.8822 36.512 34.5818 36.2996 34.9064C36.1748 35.1062 35.9253 35.3186 35.7373 35.381C35.2138 35.5934 10.3518 37.0046 9.84008 36.8546C9.60317 36.7922 9.27782 36.5924 9.1033 36.4179L8.80321 36.0933L8.7661 24.0307C8.74083 15.5644 8.7661 11.8181 8.86639 11.4809C8.94141 11.2313 9.12857 10.9313 9.29124 10.8318C9.51631 10.6817 10.9899 10.5569 16.0597 10.2576C19.6189 10.0578 25.1254 9.72065 28.285 9.53349C35.8005 9.07073 35.776 9.07073 36.1504 9.44505Z" fill="black"/>
<path d="M29.4695 13.5782C28.1207 13.6659 26.922 13.7907 26.7846 13.8657C26.3723 14.0781 26.1228 14.428 26.0731 14.8275C26.0359 15.2398 26.1607 15.2895 27.5087 15.4522L28.0955 15.5272V20.8592C28.0955 24.0306 28.0457 26.1289 27.9833 26.0665C27.9209 25.9915 26.1481 23.2947 24.0372 20.0727C21.9272 16.8389 20.1788 14.1784 20.1535 14.1539C20.1282 14.1287 18.7549 14.2037 17.1069 14.3166C15.0837 14.454 13.9726 14.5788 13.7475 14.7036C13.385 14.8907 12.9854 15.5525 12.9854 15.99C12.9854 16.2522 13.46 16.3896 14.459 16.3896H14.9834V31.7239L14.1344 31.986C13.4727 32.1858 13.2476 32.3106 13.1355 32.5601C12.9357 32.985 12.9483 33.372 13.1481 33.372C13.2231 33.372 14.6343 33.2843 16.2571 33.1848C19.4665 32.9976 19.8281 32.91 20.1653 32.2482C20.2656 32.0484 20.3525 31.836 20.3525 31.7736C20.3525 31.7239 19.9158 31.5738 19.3907 31.449C18.8537 31.3243 18.3167 31.1995 18.2045 31.1742C17.9921 31.1118 17.9795 30.7249 17.9795 25.355V19.5981L21.7755 25.5548C25.7588 31.7981 26.2586 32.5104 26.8706 32.8223C27.6327 33.2219 29.5682 32.9471 30.5419 32.3106L30.842 32.1234L30.8673 23.6074L30.9044 15.0787L31.5662 14.9539C32.3527 14.8039 32.7152 14.4422 32.7152 13.8175C32.7152 13.4179 32.6899 13.3927 32.3156 13.4053C32.0921 13.4156 30.8057 13.4906 29.4695 13.5782Z" fill="black"/>
</g>
<defs>
<clipPath id="clip0_206_692">
<rect width="40" height="40" fill="white"/>
</clipPath>
</defs>
</svg>
