<svg width="40" height="40" viewBox="0 0 40 40" fill="none" xmlns="http://www.w3.org/2000/svg">
<g clip-path="url(#clip0_206_698)">
<path d="M34 0H6C2.68629 0 0 2.68629 0 6V34C0 37.3137 2.68629 40 6 40H34C37.3137 40 40 37.3137 40 34V6C40 2.68629 37.3137 0 34 0Z" fill="#008CFF"/>
<path d="M29.7969 8.22656C30.6562 9.64062 31.0391 11.0938 31.0391 12.9375C31.0391 18.8047 26.0312 26.4297 21.9609 31.7812H12.6797L8.96094 9.51562L17.0938 8.74219L19.0703 24.5859C20.9063 21.5859 23.1797 16.875 23.1797 13.6719C23.1797 11.9141 22.875 10.7187 22.4062 9.73437L29.7969 8.22656Z" fill="white"/>
</g>
<defs>
<clipPath id="clip0_206_698">
<rect width="40" height="40" fill="white"/>
</clipPath>
</defs>
</svg>
