<svg width="40" height="40" viewBox="0 0 40 40" fill="none" xmlns="http://www.w3.org/2000/svg">
<g clip-path="url(#clip0_206_648)">
<path d="M33.9597 0.00158691H6.04031C2.70425 0.00158691 0 2.70584 0 6.04172V33.9582C0 37.2941 2.70425 39.9982 6.04031 39.9982H33.9597C37.2958 39.9982 40 37.2939 40 33.9582V6.04189C40 2.70601 37.2956 0.00158691 33.9597 0.00158691Z" fill="#FF0000"/>
<path opacity="0.554" d="M29.4318 1.71143H10.568C5.57461 1.71143 1.55466 5.76406 1.55466 10.7979V29.2019C1.71636 33.1313 2.33813 30.6471 3.5214 26.2956C4.89685 21.2383 9.37584 16.8181 14.8308 13.5054C18.9942 10.977 23.6543 9.3624 32.1375 9.2087C36.9482 9.12173 36.5237 2.965 29.4318 1.71143Z" fill="url(#paint0_linear_206_648)"/>
<path d="M8.99271 7.26929C11.5109 5.01592 14.4635 3.43044 18.9793 4.25016V18.7656C18.7857 19.4622 18.2052 19.6171 17.702 19.2301L8.99271 7.26929ZM27.0154 12.5527C29.0385 13.8163 31.3026 16.342 31.9441 20.0615L22.2197 21.6359C21.6588 21.4227 21.2371 21.0707 21.2909 20.2425L27.0154 12.5527ZM22.5102 25.0035C21.8828 25.1444 21.5511 25.5214 21.6973 26.2809L26.6158 34.6071C28.8029 33.6035 30.986 31.2612 31.9739 27.7905L22.5102 25.0035ZM17.4588 26.1646C18.1093 26.0804 18.717 26.0678 18.9103 26.7452L19.2007 36.0351C16.0052 36.2715 13.3405 35.4465 11.5366 32.8997L17.4588 26.1646ZM16.1814 21.8681C16.6461 22.4266 16.9068 23.0141 16.2977 23.7261L7.35618 26.8615C6.30208 23.9509 6.39859 21.2176 7.35618 18.6168L16.1814 21.8681Z" fill="white"/>
</g>
<defs>
<linearGradient id="paint0_linear_206_648" x1="10.1806" y1="-5.88542" x2="15.3853" y2="9.28566" gradientUnits="userSpaceOnUse">
<stop stop-color="white"/>
<stop offset="1" stop-color="white" stop-opacity="0"/>
</linearGradient>
<clipPath id="clip0_206_648">
<rect width="40" height="40" fill="white"/>
</clipPath>
</defs>
</svg>
